<svg id="Layer_1" data-name="Layer 1" xmlns="http://www.w3.org/2000/svg" xmlns:xlink="http://www.w3.org/1999/xlink" viewBox="0 0 50.07 31.58"><defs><style>.cls-1{fill:url(#linear-gradient);}</style><linearGradient id="linear-gradient" x1="5.54" y1="13.36" x2="51.22" y2="25.6" gradientUnits="userSpaceOnUse"><stop offset="0.36" stop-color="#212529"/><stop offset="0.61" stop-color="#db4d00"/></linearGradient></defs><title>logo</title><path class="cls-1" d="M51,25.61l-1.75,7.18c-9.18,0-18.35,0-27.55-.06.7-2.87,1.41-5.74,2.09-8.61-.17-.05-13.08-.06-13.37,0l-2.1,8.64H1c0-.15.07-.3.11-.44L5.06,16c.77-3.14,1.53-6.28,2.31-9.41a5.3,5.3,0,0,1,.23-.67A9.7,9.7,0,0,1,8.89,3.59a5.89,5.89,0,0,1,3.66-2.25A8.1,8.1,0,0,1,14,1.22H37.13c0,.08,0,.13,0,.18L35.22,9.28,32.16,22.06c-.19.76-.37,1.52-.55,2.27a1.09,1.09,0,0,0,0,.62,1,1,0,0,0,.84.62h1l17.32,0ZM25.6,16.83c.68-2.8,1.36-5.58,2-8.4H15a.84.84,0,0,0-.53.17,1.25,1.25,0,0,0-.47.78c-.16.7-.34,1.41-.51,2.12-.41,1.71-.83,3.42-1.24,5.14a1.08,1.08,0,0,0,0,.19Z" transform="translate(-0.96 -1.21)"/></svg>